<svg xmlns="http://www.w3.org/2000/svg" xmlns:xlink="http://www.w3.org/1999/xlink" version="1.1" width="1000" height="1000" viewBox="0 0 1000 1000" xml:space="preserve">
<desc>Created with Fabric.js 3.5.0</desc>
<defs>
</defs>
<rect x="0" y="0" width="100%" height="100%" fill="#ffffff"/>
<g transform="matrix(-1 0 0 1 500 500)" id="138224">
<g style="" vector-effect="non-scaling-stroke">
		<g transform="matrix(0.1333 0 0 -0.1333 0.0288 0.0859)">
<path style="stroke: none; stroke-width: 1; stroke-dasharray: none; stroke-linecap: butt; stroke-dashoffset: 0; stroke-linejoin: miter; stroke-miterlimit: 4; is-custom-font: none; font-file-url: none; fill: rgb(0,0,0); fill-rule: nonzero; opacity: 1;" transform=" translate(-2560.8558, -2558.7593)" d="M 3195 4935 c -60 -8 -281 -19 -490 -24 c -209 -6 -394 -14 -411 -19 c -106 -32 -152 -75 -258 -235 c -51 -78 -130 -189 -176 -247 c -122 -151 -375 -401 -685 -676 c -311 -275 -523 -483 -648 -636 c -314 -382 -477 -772 -519 -1235 c -14 -157 -5 -224 45 -318 c 55 -103 299 -330 452 -421 c 77 -46 118 -60 275 -98 c 186 -46 356 -99 710 -224 c 412 -144 530 -179 740 -218 c 135 -26 456 -25 595 0 c 227 41 455 123 717 258 c 87 45 160 79 161 77 c 2 -2 11 -40 21 -84 c 42 -183 116 -356 212 -500 c 90 -134 132 -171 181 -159 c 62 15 254 166 380 297 c 216 227 359 471 469 802 c 150 457 192 1010 118 1555 c -20 143 -36 182 -84 193 c -70 16 -497 12 -630 -6 c -414 -58 -763 -199 -1074 -435 l -39 -29 l -71 32 c -267 123 -563 147 -836 68 c -151 -43 -359 -160 -479 -269 c -30 -27 -52 -44 -50 -39 c 3 6 26 53 52 105 c 66 132 115 289 192 624 c 99 428 163 604 285 781 c 79 113 124 151 200 169 c 70 16 80 12 80 -33 c 0 -14 17 -40 43 -66 c 54 -54 118 -70 222 -56 c 67 10 72 9 107 -15 c 74 -52 174 -68 259 -42 c 33 9 42 9 57 -5 c 28 -26 88 -47 131 -47 c 27 0 72 -16 143 -50 c 262 -127 428 -88 428 101 c 0 91 -23 150 -84 217 l -52 57 l 18 35 c 34 66 25 117 -46 253 c -35 67 -98 190 -141 272 c -92 178 -105 198 -158 236 c -80 58 -195 75 -362 54 z m 214 -155 c 53 -15 78 -45 147 -183 c 57 -112 62 -126 39 -111 c -59 39 -125 -21 -125 -114 c 0 -24 18 -98 40 -166 c 29 -88 40 -140 40 -183 c 0 -56 -3 -63 -31 -87 c -34 -29 -42 -31 -69 -16 c -16 9 -18 15 -10 36 c 19 49 11 123 -26 236 c -37 113 -39 150 -19 253 c 15 73 -87 118 -134 59 c -27 -35 -44 -125 -36 -191 c 4 -30 19 -95 35 -143 c 46 -142 45 -185 -5 -206 c -46 -19 -90 -18 -126 3 c -25 15 -29 23 -29 63 c 0 25 -11 88 -25 140 c -30 118 -31 141 -2 190 c 20 37 21 42 7 67 c -39 70 -103 67 -154 -5 c -43 -60 -46 -149 -12 -287 c 13 -55 22 -102 20 -104 c -2 -3 -31 -7 -64 -9 c -71 -5 -83 9 -56 64 c 29 61 20 106 -25 129 c -26 14 -40 12 -169 -16 c -78 -17 -142 -30 -143 -28 c -11 17 -104 127 -116 137 c -23 19 -75 15 -99 -8 c -38 -36 -30 -79 28 -149 l 51 -60 l -69 -88 c -162 -207 -239 -391 -337 -808 c -104 -439 -138 -552 -214 -703 c -109 -217 -294 -385 -528 -478 c -48 -20 -96 -45 -105 -56 c -27 -31 -23 -82 8 -107 c 36 -29 65 -26 162 13 c 113 47 199 97 298 172 c 48 36 94 64 107 64 c 36 0 126 29 187 60 c 30 16 98 65 150 110 c 148 127 255 192 396 239 c 186 62 425 52 637 -27 c 125 -47 306 -151 446 -256 c 83 -63 119 -70 158 -34 c 16 15 23 33 23 60 c 0 46 -31 79 -152 161 c -43 29 -77 55 -78 59 c 0 13 184 129 300 187 c 206 105 462 181 715 212 c 98 12 479 19 488 9 c 16 -16 29 -358 24 -612 c -10 -503 -85 -862 -253 -1213 c -126 -265 -326 -511 -539 -664 l -44 -32 l -44 60 c -95 128 -169 318 -212 543 c -27 142 -41 168 -92 168 c -13 0 -89 -36 -168 -81 c -546 -306 -973 -389 -1455 -282 c -145 32 -257 67 -600 188 c -345 123 -509 174 -729 231 c -133 34 -188 53 -234 81 c -84 51 -217 164 -314 266 c -111 118 -121 149 -105 326 c 37 408 182 762 449 1096 c 116 145 291 322 571 577 c 612 557 748 700 947 998 c 47 69 99 140 117 157 c 61 59 87 63 483 74 c 198 6 392 14 430 18 c 102 12 205 12 244 1 z m 292 -457 l 64 -123 l -38 -37 c -32 -33 -37 -35 -37 -17 c 0 11 -12 54 -26 95 c -23 66 -49 229 -33 211 c 3 -4 35 -62 70 -129 z m 146 -433 c 13 -18 23 -48 23 -67 l 0 -35 l -42 7 c -54 9 -145 43 -154 57 c -3 5 15 32 42 59 l 48 49 l 30 -18 c 17 -10 41 -33 53 -52 z" stroke-linecap="round"/>
</g>
		<g transform="matrix(0.1333 0 0 -0.1333 -255.8143 109.0843)">
<path style="stroke: none; stroke-width: 1; stroke-dasharray: none; stroke-linecap: butt; stroke-dashoffset: 0; stroke-linejoin: miter; stroke-miterlimit: 4; is-custom-font: none; font-file-url: none; fill: rgb(0,0,0); fill-rule: nonzero; opacity: 1;" transform=" translate(-641.4602, -1741.7811)" d="M 411 2062 c -81 -80 -26 -342 101 -487 c 51 -58 167 -136 246 -165 c 92 -35 152 -9 152 65 c 0 40 -30 68 -97 90 c -66 21 -159 89 -195 141 c -57 82 -72 132 -75 239 c -2 94 -3 101 -28 122 c -35 31 -71 29 -104 -5 z" stroke-linecap="round"/>
</g>
		<g transform="matrix(0.1333 0 0 -0.1333 119.7654 155.6473)">
<path style="stroke: none; stroke-width: 1; stroke-dasharray: none; stroke-linecap: butt; stroke-dashoffset: 0; stroke-linejoin: miter; stroke-miterlimit: 4; is-custom-font: none; font-file-url: none; fill: rgb(0,0,0); fill-rule: nonzero; opacity: 1;" transform=" translate(-3458.4822, -1392.5609)" d="M 3713 1660 c -144 -73 -330 -140 -463 -165 c -189 -36 -414 -30 -584 16 c -95 25 -122 24 -151 -6 c -53 -52 -19 -114 81 -144 c 117 -37 242 -54 394 -54 c 258 -1 477 53 764 186 c 80 37 89 39 98 24 c 5 -10 37 -54 71 -99 c 130 -173 351 -362 424 -362 c 58 0 96 59 73 115 c -7 16 -35 42 -68 62 c -132 82 -266 223 -364 383 c -57 93 -79 115 -118 113 c -14 -1 -84 -32 -157 -69 z" stroke-linecap="round"/>
</g>
</g>
</g>
</svg>